# File units = meters
mtllib control - control.mtl
g control
v 0.0191533 0.453814 0.2 
v -0.0195725 0.45399 0.2 
v -0.000587101 0.37089 0.25 
v -0.0195725 0.45399 0 
v 0.0191533 0.453814 0 
v 0.25 -0.102847 0 
v 0.25 -0.102847 0.2 
v -0.25 -0.0876849 0 
v -0.25 -0.0876849 0.2 
v -5.08798e-18 0.5 0 
v -0.25 0.5 0 
v 0.25 0.5 0 
v -0.25 0.5 -0.25 
v 0.25 0.5 -0.25 
v 0.25 -0.5 -0.25 
v -0.25 -0.5 -0.25 
v 0.25 -0.5 0.2 
v -0.25 -0.5 0.2 
v 0.2 -0.112804 0.25 
v 0.2 -0.45 0.25 
v -0.2 -0.45 0.25 
v -0.2 -0.0978779 0.25 
vn 0.00234617 0.515948 0.856617 
vn 0.00454725 0.99999 0 
vn 0.923721 0.383066 0 
vn -0.920199 0.391451 0 
vn 0 0 1 
vn 0 1 0 
vn 0 0 -1 
vn 1 1.94289e-16 0 
vn -1 -1.94289e-16 0 
vn 0 -1 0 
vn 0.707107 1.37383e-16 0.707107 
vn 0 0 1 
vn 0 -0.707107 0.707107 
vn 0.653169 0.270869 0.707107 
vn -0.707107 -1.37383e-16 0.707107 
vn -0.650679 0.276798 0.707107 
usemtl 0.615686_0.811765_0.929412_0.000000_0.000000
o mesh0
f 1//1 2//1 3//1 
o mesh1
f 4//2 2//2 1//2 
f 1//2 5//2 4//2 
o mesh2
f 6//3 5//3 1//3 
f 1//3 7//3 6//3 
o mesh3
f 4//4 8//4 9//4 
f 9//4 2//4 4//4 
o mesh4
f 10//5 11//5 4//5 
f 5//5 12//5 10//5 
f 11//5 8//5 4//5 
f 4//5 5//5 10//5 
f 5//5 6//5 12//5 
o mesh5
f 13//6 11//6 10//6 
f 10//6 14//6 13//6 
f 10//6 12//6 14//6 
o mesh6
f 13//7 14//7 15//7 
f 15//7 16//7 13//7 
o mesh7
f 17//8 15//8 6//8 
f 14//8 12//8 6//8 
f 6//8 15//8 14//8 
f 6//8 7//8 17//8 
o mesh8
f 13//9 16//9 8//9 
f 18//9 9//9 8//9 
f 8//9 16//9 18//9 
f 8//9 11//9 13//9 
o mesh9
f 16//10 15//10 17//10 
f 17//10 18//10 16//10 
o mesh10
f 7//11 19//11 20//11 
f 20//11 17//11 7//11 
o mesh11
f 21//12 20//12 19//12 
f 19//12 22//12 21//12 
f 19//12 3//12 22//12 
o mesh12
f 18//13 17//13 20//13 
f 20//13 21//13 18//13 
o mesh13
f 7//14 1//14 3//14 
f 3//14 19//14 7//14 
o mesh14
f 9//15 18//15 21//15 
f 21//15 22//15 9//15 
o mesh15
f 9//16 22//16 3//16 
f 3//16 2//16 9//16 
